<svg width="48" height="24" viewBox="0 0 48 24" fill="none" xmlns="http://www.w3.org/2000/svg">
<rect y="3" width="48" height="19" fill="#FBEEDF"/>
<path fill-rule="evenodd" clip-rule="evenodd" d="M31.75 12C31.75 11.5858 31.4142 11.25 31 11.25H17C16.5858 11.25 16.25 11.5858 16.25 12C16.25 12.4142 16.5858 12.75 17 12.75H31C31.4142 12.75 31.75 12.4142 31.75 12Z" fill="black"/>
<path fill-rule="evenodd" clip-rule="evenodd" d="M31.75 7C31.75 6.58579 31.4142 6.25 31 6.25H17C16.5858 6.25 16.25 6.58579 16.25 7C16.25 7.41421 16.5858 7.75 17 7.75H31C31.4142 7.75 31.75 7.41421 31.75 7Z" fill="black"/>
<path fill-rule="evenodd" clip-rule="evenodd" d="M31.75 17C31.75 16.5858 31.4142 16.25 31 16.25H17C16.5858 16.25 16.25 16.5858 16.25 17C16.25 17.4142 16.5858 17.75 17 17.75H31C31.4142 17.75 31.75 17.4142 31.75 17Z" fill="black"/>
</svg>
